<svg width="54" height="20" viewBox="0 0 54 20" fill="none" xmlns="http://www.w3.org/2000/svg">
<path fill-rule="evenodd" clip-rule="evenodd" d="M9.22019 5.83243H2.69551L2.71547 7.93779C2.72139 8.54079 2.17489 8.99304 1.75411 9.35263C1.74006 9.3644 1.72749 9.37469 1.7127 9.38572C1.16399 9.79753 0.836384 10.4366 0.836384 11.1219V16.9931C0.836384 18.1873 1.82215 19.1676 3.02311 19.1676H8.97541C10.1764 19.1676 11.1621 18.1873 11.1621 16.9931V11.1219C11.1621 10.3321 10.7266 9.60854 10.0373 9.22394C9.97079 9.18644 9.91828 9.14747 9.86356 9.09452C9.54483 8.78567 9.21945 8.41872 9.21945 7.94808V5.83243H9.22019ZM10.4478 8.49814C11.3714 9.01436 12 9.99828 12 11.1219V16.9931C12 18.6469 10.6393 20 8.97615 20H3.02385C1.3607 20 0 18.6469 0 16.9931V11.1219C0 10.1439 0.476243 9.27101 1.2091 8.72095C1.52117 8.45475 1.88057 8.13928 1.87909 7.94514L1.85764 5.70742C1.85395 5.31841 2.17785 5 2.56905 5H9.34517C9.73637 5 10.0566 5.31841 10.0566 5.70742V7.94808C10.0566 8.08927 10.237 8.29444 10.447 8.49814H10.4478Z" fill="#E31E24"/>
<path d="M10.1099 6.33466H1.76607C1.30415 6.33466 0.929688 6.52084 0.929688 6.75051C0.929688 6.98017 1.30415 7.16636 1.76607 7.16636H10.1099C10.5719 7.16636 10.9463 6.98017 10.9463 6.75051C10.9463 6.52084 10.5719 6.33466 10.1099 6.33466Z" fill="#E31E24"/>
<path d="M12 11.1225H0.000732422V16.5914H12V11.1225Z" fill="#E31E24"/>
<path fill-rule="evenodd" clip-rule="evenodd" d="M28.7569 3.47117H21.1448L21.1681 5.92742C21.175 6.63092 20.5374 7.15855 20.0465 7.57807C20.0301 7.5918 20.0154 7.60381 19.9982 7.61668C19.358 8.09712 18.9758 8.84266 18.9758 9.64224V16.4919C18.9758 17.8852 20.1258 19.0288 21.527 19.0288H28.4713C29.8724 19.0288 31.0225 17.8852 31.0225 16.4919V9.64224C31.0225 8.72083 30.5143 7.87663 29.7102 7.42793C29.6326 7.38418 29.5713 7.33871 29.5075 7.27694C29.1356 6.91661 28.756 6.4885 28.756 5.93943V3.47117H28.7569ZM30.1891 6.58116C31.2667 7.18342 32 8.33133 32 9.64224V16.4919C32 18.4214 30.4125 20 28.4722 20H21.5278C19.5875 20 18 18.4214 18 16.4919V9.64224C18 8.5012 18.5556 7.48284 19.4106 6.84111C19.7747 6.53054 20.194 6.16249 20.1923 5.936L20.1673 3.32533C20.1629 2.87148 20.5408 2.5 20.9972 2.5H28.9027C29.3591 2.5 29.7327 2.87148 29.7327 3.32533V5.93943C29.7327 6.10415 29.9432 6.34351 30.1882 6.58116H30.1891Z" fill="#E31E24"/>
<path d="M29.7948 4.0571H20.0603C19.5213 4.0571 19.0845 4.27431 19.0845 4.54226C19.0845 4.8102 19.5213 5.02741 20.0603 5.02741H29.7948C30.3337 5.02741 30.7706 4.8102 30.7706 4.54226C30.7706 4.27431 30.3337 4.0571 29.7948 4.0571Z" fill="#E31E24"/>
<path d="M32.0001 9.64291H18.001V16.0233H32.0001V9.64291Z" fill="#E31E24"/>
<path fill-rule="evenodd" clip-rule="evenodd" d="M50.2936 1.10991H41.594L41.6206 3.91705C41.6285 4.72105 40.8999 5.32405 40.3388 5.80351C40.3201 5.8192 40.3033 5.83292 40.2836 5.84763C39.552 6.39671 39.1152 7.24875 39.1152 8.16257V15.9908C39.1152 17.5831 40.4295 18.8901 42.0308 18.8901H49.9672C51.5685 18.8901 52.8828 17.5831 52.8828 15.9908V8.16257C52.8828 7.10952 52.3021 6.14472 51.3831 5.63192C51.2944 5.58192 51.2244 5.52995 51.1514 5.45936C50.7264 5.04755 50.2926 4.55829 50.2926 3.93078V1.10991H50.2936ZM51.9304 4.66418C53.1619 5.35249 54 6.66438 54 8.16257V15.9908C54 18.1959 52.1857 20 49.9682 20H42.0318C39.8143 20 38 18.1959 38 15.9908V8.16257C38 6.85852 38.635 5.69468 39.6121 4.96127C40.0282 4.60633 40.5074 4.1857 40.5055 3.92686L40.4769 0.94323C40.4719 0.424551 40.9038 0 41.4254 0H50.4602C50.9818 0 51.4088 0.424551 51.4088 0.94323V3.93078C51.4088 4.11903 51.6493 4.39259 51.9294 4.66418H51.9304Z" fill="#E31E24"/>
<path d="M51.4798 1.77957H40.3547C39.7388 1.77957 39.2395 2.02781 39.2395 2.33404C39.2395 2.64026 39.7388 2.8885 40.3547 2.8885H51.4798C52.0957 2.8885 52.595 2.64026 52.595 2.33404C52.595 2.02781 52.0957 1.77957 51.4798 1.77957Z" fill="#E31E24"/>
<path d="M54 8.16339H38.001V15.4553H54V8.16339Z" fill="#E31E24"/>
</svg>
