<svg width="160" height="93" viewBox="0 0 160 93" fill="none" xmlns="http://www.w3.org/2000/svg">
<path fill-rule="evenodd" clip-rule="evenodd" d="M12.0236 80.3194C15.5137 75.2204 16.1687 73.593 23.7852 73.8198L12.0236 80.3194ZM153.294 11.4277C137.256 32.2678 127.955 11.0924 109.335 24.0521C78.5135 45.4938 103.693 54.2619 32.7958 66.2748C19.3687 68.5531 0.205851 76.7195 0 92.5C13.8949 89.8272 14.1008 83.4065 34.9853 83.8996C71.0467 84.7478 111.571 94.7783 137.948 62.9412C148.812 49.8335 142.271 44.7245 146.847 30.029C149.429 21.7146 159.216 19.7223 159.928 9.47485C160.199 5.55932 159.778 -0.141388 157.457 0.558871C156.756 0.76599 155.792 1.05201 154.482 1.40707C152.807 1.87063 151.965 2.75828 151.722 3.28101C151.207 4.40537 152.676 7.34449 153.303 11.4178L153.294 11.4277Z" fill="#E30714"/>
<path fill-rule="evenodd" clip-rule="evenodd" d="M70.2422 64.4699C87.8892 61.6688 98.1818 50.1293 109.083 38.1855C118.056 28.3522 117.756 33.0568 126.645 26.9912L118.57 26.7939C110.645 26.6065 100.839 42.1207 94.6543 48.1173C81.8447 60.5445 77.1756 58.8481 70.2515 64.46L70.2422 64.4699Z" fill="#FEFEFE"/>
</svg>
