<svg width="24" height="24" viewBox="0 0 24 24" fill="none" xmlns="http://www.w3.org/2000/svg">
<path d="M14 22H10C7.87827 22 5.84344 21.1571 4.34315 19.6569C2 17.5 2 14.1217 2 12V3H6V12C6 13.0609 6.24985 15.2499 7 16C7.75015 16.7501 8.93913 17 10 17V3H14V11.5L14.03 11.496C15.126 11.3592 16.1343 10.8269 16.8654 9.99892C17.5965 9.17098 18 4.10452 18 3H22L21.658 4.711C21.4532 5.73509 21.0171 10.6989 20.3832 11.5288C19.7493 12.3588 19.4341 12.533 18.5 13C19.4083 13.3026 20 14 20.5 15C21 16 21.566 19.611 21.566 19.611L22 22.004L17.5 22C17.5 20.8955 17.5965 18.5007 16.8654 17.6727C16.1343 16.8448 15.126 15.6408 14.03 15.504V22.004L14 22Z" stroke="#FEFEFE" stroke-width="2" stroke-linecap="round" stroke-linejoin="round"/>
</svg>
